<svg version="1.1" id="Layer_1" xmlns="http://www.w3.org/2000/svg" xmlns:xlink="http://www.w3.org/1999/xlink" x="0px" y="0px"
	 width="100%" viewBox="0 0 800 800" enable-background="new 0 0 800 800" xml:space="preserve">
<path fill="#222C32" opacity="1.000000" stroke="none" 
	d="
M501.000000,801.000000 
	C334.000000,801.000000 167.500000,801.000000 1.000000,801.000000 
	C1.000000,534.333313 1.000000,267.666656 1.000000,1.000000 
	C267.666656,1.000000 534.333313,1.000000 801.000000,1.000000 
	C801.000000,267.666656 801.000000,534.333313 801.000000,801.000000 
	C701.166687,801.000000 601.333313,801.000000 501.000000,801.000000 
M410.251160,69.022812 
	C393.020416,65.679688 377.958740,70.779716 365.928406,82.765358 
	C271.370209,176.972290 177.028046,271.396301 82.739105,365.872986 
	C73.086884,375.544434 67.948990,387.637726 68.067696,401.452332 
	C68.186455,415.273010 73.724678,427.128967 83.364014,436.782318 
	C177.560410,531.115967 271.811340,625.395203 366.180908,719.555603 
	C375.589478,728.943298 387.462067,733.892151 400.879486,733.927795 
	C415.083099,733.965576 427.173401,728.252258 437.093079,718.344116 
	C530.941406,624.604980 624.739502,530.815552 718.468506,436.957062 
	C728.095337,427.316925 733.746765,415.523865 733.934692,401.706940 
	C734.138733,386.707581 727.790588,374.315552 717.375427,363.896149 
	C625.367920,271.851013 533.302673,179.863647 441.356995,87.756866 
	C432.672974,79.057648 423.270355,71.951164 410.251160,69.022812 
z"/>
<path fill="#5359EA" opacity="1.000000" stroke="none" 
	d="
M410.678589,69.062996 
	C423.270355,71.951164 432.672974,79.057648 441.356995,87.756866 
	C533.302673,179.863647 625.367920,271.851013 717.375427,363.896149 
	C727.790588,374.315552 734.138733,386.707581 733.934692,401.706940 
	C733.746765,415.523865 728.095337,427.316925 718.468506,436.957062 
	C624.739502,530.815552 530.941406,624.604980 437.093079,718.344116 
	C427.173401,728.252258 415.083099,733.965576 400.879486,733.927795 
	C387.462067,733.892151 375.589478,728.943298 366.180908,719.555603 
	C271.811340,625.395203 177.560410,531.115967 83.364014,436.782318 
	C73.724678,427.128967 68.186455,415.273010 68.067696,401.452332 
	C67.948990,387.637726 73.086884,375.544434 82.739105,365.872986 
	C177.028046,271.396301 271.370209,176.972290 365.928406,82.765358 
	C377.958740,70.779716 393.020416,65.679688 410.678589,69.062996 
M403.159851,507.665802 
	C404.643738,506.603790 406.126801,505.540619 407.611633,504.479889 
	C441.252655,480.448547 474.976929,456.532562 508.506073,432.346161 
	C531.075928,416.065277 531.268738,386.079559 508.740265,369.840698 
	C462.386108,336.427948 415.850677,303.265686 369.266388,270.174072 
	C357.067657,261.508606 343.689819,260.064270 330.150635,266.821686 
	C316.420563,273.674377 309.315155,285.394531 309.265656,300.557892 
	C309.046997,367.525635 309.054749,434.494904 309.269928,501.462646 
	C309.318024,516.438416 316.337006,528.084717 329.782684,534.951782 
	C343.394958,541.903992 356.833954,540.480896 369.328522,531.780151 
	C380.497223,524.002686 391.468750,515.942078 403.159851,507.665802 
z"/>
<path fill="#FFFFFF" opacity="1.000000" stroke="none" 
	d="
M402.843567,507.836090 
	C391.468750,515.942078 380.497223,524.002686 369.328522,531.780151 
	C356.833954,540.480896 343.394958,541.903992 329.782684,534.951782 
	C316.337006,528.084717 309.318024,516.438416 309.269928,501.462646 
	C309.054749,434.494904 309.046997,367.525635 309.265656,300.557892 
	C309.315155,285.394531 316.420563,273.674377 330.150635,266.821686 
	C343.689819,260.064270 357.067657,261.508606 369.266388,270.174072 
	C415.850677,303.265686 462.386108,336.427948 508.740265,369.840698 
	C531.268738,386.079559 531.075928,416.065277 508.506073,432.346161 
	C474.976929,456.532562 441.252655,480.448547 407.611633,504.479889 
	C406.126801,505.540619 404.643738,506.603790 402.843567,507.836090 
z"/>
</svg>